# xmcd
#
# Track frame offsets: 
#        150
#        13478
#        29567
#        48293
#        62629
#        79684
#        91691
#        108598
#        128930
#        147125
#        159923
#        171270
#        185695
#        198427
#
# Disc length: 2832 seconds
#
# Revision: 0
# Processed by: cddbd v1.4PL0 Copyright (c) Steve Scherf et al.
# Submitted via: ExactAudioCopy v0.90a11
#
DISCID=bd0b0e0e
DTITLE=Ike and Tina Turner - The Great Ike and Tina Turner - Disc 1
DYEAR=1900
DGENRE=
TTITLE0=Nutbrush City Limits
TTITLE1=Golden Empire
TTITLE2=Something
TTITLE3=Oh My My (Can You Boogie)
TTITLE4=Stormy Weather
TTITLE5=You Don't Love Me (Yes I Know)
TTITLE6=Stand By Me
TTITLE7=Give Me A Chance
TTITLE8=I Idolise You
TTITLE9=Put On Your Tight Pants
TTITLE10=Ain't That A Shame
TTITLE11=Rockin' And Rollin'
TTITLE12=Shake
TTITLE13=I Wish It Would Rain (Live)
EXTD=
EXTT0=
EXTT1=
EXTT2=
EXTT3=
EXTT4=
EXTT5=
EXTT6=
EXTT7=
EXTT8=
EXTT9=
EXTT10=
EXTT11=
EXTT12=
EXTT13=
PLAYORDER=
